<?xml version="1.0" encoding="utf-8"?>
<!-- Generator: Adobe Illustrator 18.1.1, SVG Export Plug-In . SVG Version: 6.00 Build 0)  -->
<svg version="1.1" id="sketchedCircle" xmlns="http://www.w3.org/2000/svg" xmlns:xlink="http://www.w3.org/1999/xlink" x="0px" y="0px"
	 xml:space="preserve">
<g>
	<ellipse fill="#FFFFFF" cx="389.8" cy="237.2" rx="33.8" ry="32.3"/>
	<g>
		<g>
			<g>
				<g>
					<polygon fill="#616161" points="423.5,237.2 423.6,236.6 423.3,236.5 					"/>
					<path fill="#616161" d="M424.3,234.4c0,0,0-0.3-0.1-0.5c0-0.2-0.1-0.5-0.1-0.5c-0.7,0.6-0.5-0.1-0.9,1.4
						c0.1,0.5,0.5,1.7,0.7,1.5c-0.1-0.4-0.4-0.9-0.3-1.5c0.2,0.2,0.2,0.9,0.5,1.1c0.2-1-0.2-0.6-0.2-1.6L424.3,234.4z"/>
					<path fill="#616161" d="M423.4,233.3c0.1,0.1,0.3,0.2,0.4,0.1C423.7,233.4,423.4,232.9,423.4,233.3z"/>
					<path fill="#616161" d="M423.2,232.7c-0.1-0.6,0.3,0,0.3-0.1L423,232L423.2,232.7z"/>
					<path fill="#616161" d="M422.8,230.2c0-0.1-0.1-0.2-0.1-0.3C422.7,230,422.7,230.1,422.8,230.2z"/>
					<path fill="#616161" d="M422.4,229c-0.1,0.3,0.1,0.6,0.3,0.9c0,0,0,0,0,0c0-0.4,0.5-0.1,0.5,0.5c0.2,0.6-0.2,0.6,0.2,1.1
						l0.2-0.8C423.3,229.7,422.7,229.3,422.4,229z"/>
					<path fill="#616161" d="M422.8,230.2c0,0.1,0.1,0.2,0.1,0.3C422.9,230.4,422.9,230.3,422.8,230.2z"/>
					<polygon fill="#616161" points="423,231.5 423.2,231.8 423.3,231.7 					"/>
					<path fill="#616161" d="M421.8,227c0.2,0,0.4,0.3,0.5,0.7c0.1,0.4,0.1,0.8,0.3,0.8c-0.1-0.4-0.1-0.8-0.1-1.1
						c0-0.3,0.1-0.4,0.3-0.4l-0.5-0.8C422,225.9,421.8,226.4,421.8,227z"/>
					<path fill="#616161" d="M422.2,224.8c-0.1,0-0.1-0.1-0.2-0.2C422.1,224.7,422.2,224.8,422.2,224.8z"/>
					<path fill="#616161" d="M419.4,220.9c0,0,0.1,0.1,0.2,0.3c0.1,0.2,0.4,0.3,0.5,0.6c0.4,0.4,0.7,0.9,0.7,0.9
						c-0.2-0.1-0.3,0-0.6-0.4c0.4,0.9,0.7,0.9,1,1.6c-0.3,0.4-0.7-1.2-0.8-0.7c0.3,0.5,0.7,1.2,1.2,1.5l0,1l0.3-0.5
						c0-0.4-0.6-0.5-0.4-0.9c0.1-0.2,0.3,0.1,0.5,0.4c-0.3-0.5-0.4-1.6-1-2.7C420.5,220.8,420,221.5,419.4,220.9z"/>
					<polygon fill="#616161" points="419.8,220.6 419.8,220.4 419.7,220.6 					"/>
					<path fill="#616161" d="M417.9,218.9c0,0,0.9,0.8,0.9,0.8c0,0.1,0,0.2,0,0.4c0.1-0.1,0.4,0.1,0.4,0c0.1-0.7-0.8-1.1-1.3-1.6
						c-0.8-1.4,0.2-0.1,0.2-0.8c0.3,0.4,0.2,0.4,0.6,1c-0.2-1.1-1.4-1.8-1.9-2.2c0.1,0.2,0,0.3,0.3,0.6l-0.5-0.4
						C416.7,217.2,417,217.7,417.9,218.9z"/>
					<path fill="#616161" d="M419,220.6c-0.3-0.3-0.3-0.5-0.3-0.6C418.7,220.2,418.7,220.4,419,220.6z"/>
					<path fill="#616161" d="M416.6,216.1c0,0.1,0.1,0.2,0.2,0.3C416.7,216.3,416.7,216.2,416.6,216.1z"/>
					<path fill="#616161" d="M416.6,216.9c0,0-0.4-0.7-0.5-0.6c0,0,0,0.4,0,0.4C416.2,216.7,416.5,217,416.6,216.9z"/>
					<path fill="#616161" d="M389.8,203.9c0.1,0.2,0.4,0.3,1,0.3c-0.1,0.2-0.9,0.1-1.3,0.3c0.8,0.1,0,0.3,0.2,0.5
						c0.9,0,1.3-0.2,2.3-0.1c-0.1,0.1,0,0.2,0.1,0.3c1.2-0.2,3.1,0,4.2,0.3c1.1,0.3,1.9,0.4,3.1,0.6c3.8,1.2,7.7,2.7,11,5.4l0.8,0
						c0,0.3,0.8,0.6,0.5,0.8c-0.1-0.2-0.4-0.3-0.6-0.4c0.5,0.8,1.9,1.5,2.6,2.3c0-0.1,0.1-0.5,0.4-0.4c-0.4,0.3,0.9,0.9,0.7,1.6
						c0.6,0.9,0.3-0.3,1.1,0.6c0.3-0.1-0.7-0.9-0.6-1.2c0.4,0.1,0.6,0.8,0.8,0.6c-0.6-0.7-1.6-1.7-2.8-2.5c-0.6-0.4-1.2-0.9-1.9-1.2
						c-0.7-0.4-1.3-0.7-1.9-1.1l0.4-0.1c-0.6-0.4-1.5-0.8-2.2-1.3c-0.8-0.5-1.5-1-1.9-1.5c0.1,0.4-1.9-1-1.9-0.4
						c-0.3-0.3-0.4-0.3-0.8-0.5l-0.2,0.1c-0.7-0.2-0.5-0.5-1.3-0.7c0.4,0.4-0.2,0.3-0.5,0.4c-0.8-0.6-1.8-1.1-2.6-1.6
						c0,0.1,0.1,0.2,0.4,0.4c-0.5-0.2-0.5,0-0.7,0.1c-0.6-0.1-0.4-0.4-0.4-0.6c-1-0.4-1.6,0.2-2.3-0.1l0.2,0.3c-0.5,0-1-0.2-1.5-0.3
						c-0.2-0.1-0.5-0.1-0.8-0.2c-0.3,0-0.5,0-0.8,0c-0.5-0.4,1-0.3,1.5-0.3c-0.2-0.1-0.7-0.2-0.9-0.3c-0.5,0.2-1.4,0.4-2,0.5
						C391.7,204,390.2,203.9,389.8,203.9z"/>
					<path fill="#616161" d="M393.1,203.9c0.2-0.1,0.3-0.1,0.4-0.1c-0.1,0-0.2,0-0.4,0C393.1,203.8,393.1,203.8,393.1,203.9z"/>
					<path fill="#616161" d="M389.8,203.9C389.8,203.9,389.8,203.9,389.8,203.9C389.6,203.9,389.7,203.9,389.8,203.9z"/>
					<path fill="#616161" d="M396.4,205.4c0,0-0.1,0-0.1,0c-0.1,0-0.1,0-0.2,0L396.4,205.4z"/>
					<path fill="#616161" d="M397.5,204.4c0.2,0.1,0.5,0.3,0.8,0.5C398.3,204.8,398.2,204.7,397.5,204.4z"/>
					<path fill="#616161" d="M404.4,207c0.2,0.1,0.1-0.1,0.3-0.1C404.3,206.7,404.1,206.7,404.4,207z"/>
					<polygon fill="#616161" points="391.8,203.7 390.9,203.8 390.6,203.8 					"/>
					<path fill="#616161" d="M374.5,208.6c0.8,0,1.8-0.7,2.7-1c1.6-0.7,0-0.7,1.5-1.3l-0.1,0.7c0.4-0.1,0.8-0.3,1.3-0.4
						c0.5-0.1,0.9-0.2,1.4-0.4c0.9-0.3,1.8-0.6,2.5-1c0.1,0.1,0.4,0.1,0,0.3c1.1-0.2,0.4-1,2-1c-1.3,0.6,0.5,0.3,0.2,0.8l-0.2,0.1
						c0.5-0.1,1-0.2,1.5-0.3c0.5-0.1,1-0.1,1.3-0.2c0-0.2-0.5-0.4,0.3-0.5c-0.3,0-0.2-0.2-0.2-0.4c-0.9,0.2-1.4,0.1-1.9,0.4
						c-0.5-0.2,0.3-0.1-0.2-0.3c0,0-0.2,0.1-0.3,0.1c-0.2,0.1-0.3,0.2-0.3,0.2c-0.5,0,0.5-0.3-0.3-0.2c-0.1,0.1-0.7,0.4-1.3,0.4
						l0.2-0.1c-0.5,0.2-1.2,0.2-0.9,0.5l-0.6-0.3l0.1,0.2c-1.3,0.2-1.9-0.2-3.5,0.5c0.4,0,0.1,0.2-0.1,0.3c0.7,0,0.8-0.4,1.5-0.6
						c0.2,0.2-0.9,0.8,0,0.7c-0.5,0-0.9,0.1-1.2,0.1c-0.3,0.1-0.6,0.1-0.9-0.1c-1,0.3-1.3,0.7-2.4,1l0-0.1c0,0.5-0.9,0.2-1.5,0.9
						l0.6-0.2c0,0.2-0.2,0.3-0.6,0.5c0-0.1,0-0.1-0.1-0.1c0,0.3-1.1,0.9-1.2,1c0.5-0.2,0.9-0.7,1.5-1
						C374.7,208.2,374.9,208.4,374.5,208.6z"/>
					<path fill="#616161" d="M384.7,204.3l-0.3,0.2C384.6,204.5,384.7,204.4,384.7,204.3z"/>
					<path fill="#616161" d="M370,210.6c-0.6,0.3,0-0.3-0.6,0c-0.5,0.6,0.9-0.1,0.5,0.5c-0.4,0.1-0.8,0.7-1,0.9
						c0.1-0.3-0.2-0.5-0.4-0.5c-0.2,0.2-0.8,0.4-1.1,0.7c1-0.5-0.6,0.7,0.3,0.3c0.1,0.2-0.6,1-1,1.2c-0.1-0.1,0.2-0.3,0.4-0.5
						c0-0.4-0.6,0.3-1,0.2c-0.3,0.5-1,1.4-1.5,2.1c-0.5,0.7-0.8,1.3-0.2,1.2c0.3-0.2,0.4-0.5,0.7-0.8c-0.8,0.7-0.3-0.3-0.3-0.4
						c0.4-0.3,0.8-1,0.8-0.7l-0.3,0.7c0.8-0.8,1.9-1.7,3-2.6c0.5-0.5,1.2-0.9,1.7-1.3c0.6-0.4,1.1-0.9,1.7-1.2c0,0-1,0.6-1,0.6
						c0-0.3,0.5-0.6,0.8-0.8l-0.8-0.1c0.3-0.1,0.6-0.4,0.6-0.2c0.3-0.4,0-0.4-0.3-0.4c0.7-0.5,1-0.4,1.4-1.1c-1.5,0.4-1,0.9-2.6,1.5
						L370,210.6z"/>
					<polygon fill="#616161" points="372.6,208.7 372.4,209 372.9,208.7 					"/>
					<path fill="#616161" d="M372.7,209.8c-0.1-0.1,0.1-0.2,0-0.3C372.1,209.8,372.2,209.9,372.7,209.8z"/>
					<path fill="#616161" d="M365.4,213.9l-0.6,0.7l0.5-0.4C365.3,214.2,365.4,214,365.4,213.9z"/>
					<path fill="#616161" d="M362.3,219.4c0.7-1,0.8-1.5,1.9-2.4c0.2-0.7-0.7-0.1-0.7-0.5c-0.5,0.5,0,0.8-0.4,1.4
						c-0.4,0-0.6,0.9-1.1,1.3C362.2,219.1,362.3,219.2,362.3,219.4z"/>
					<path fill="#616161" d="M359.3,222.4c-0.3,0.5-0.3,1.1-0.6,1.4c-0.1-0.1,0-0.5,0.2-0.7c-0.4,0-0.2,0.6-0.7,1
						c0.1,0,0.2-0.2,0.2,0c-0.7,1.4,0,0.9-1,2.7c0,0.3-0.1,0.6,0.1,0.6c-0.6,1-0.4,0.4-1.1,1.7c0.2,0,0.6-0.4,0.9-0.3
						c-0.5,0.8-0.6,1.3-0.6,1.7c-0.1,0.4,0,0.7-0.3,1.3c0-0.1,0-0.3,0-0.6c-0.5,0.1-0.1,1-0.3,1.7l-0.4-0.1c0,0.3,0,0.7,0,1.2
						c0,0.5,0,0.9-0.2,1.3l-0.2-0.2c0.1,0.8,0.1,1.7,0.1,2.5c0.1,0.8,0.1,1.6,0.2,2.3l-0.2,0.8c0.3,0.9,0.2,0.4,0.2-0.1
						c0-0.5,0.1-1.1,0.4-0.5c-0.7,0.3,0.3,0.9,0.2,2c-0.2,0.5-0.3-1-0.5-0.4c0.4,0.2,0.2,0.5,0.4,1.1c-0.3-0.1,0.1,1.2-0.3,0.9
						c0,0,0.1,0.1,0.2,0.3c0.1,0.2,0.2,0.4,0.4,0.6c0.3,0.4,0.6,0.9,0.6,0.9c-0.1,0.4,0.1,0.9,0.2,1.3c-0.3-1,0.5,0.1,0.4-1.1
						c-0.3-0.8-0.7-1.9-0.9-3.1c-0.1-0.6-0.2-1.2-0.3-1.8c-0.1-0.6,0-1.2,0-1.7c-0.5-0.2-0.1-1.4-0.5-1.7c0.1-0.1,0.3-0.2,0.4-0.3
						c0-1.4-0.3,0.3-0.4,0c0-0.6,0.3-1.1,0.4-1c0.1-1-0.1-0.1-0.3-0.6l0.5-0.6c0-0.8,0.1-1.6,0.2-2.5c0-0.4,0.1-0.9,0.1-1.3
						c0-0.5,0.2-0.9,0.3-1.4c0.4-1.8,1.1-3.6,1.9-5.2l-0.4,0.1c0.4-0.7,0.6-1.4,0.8-2c0.1-0.3,0.2-0.6,0.4-0.9
						c0.2-0.3,0.4-0.5,0.8-0.7l0-0.6c0,0.3,0.5,0,0.5,0.5c0.1-0.4,0.5-0.8,0.7-1.2l-0.6,0.6c0.1-0.6,0.5-1.1,0.9-1.1
						c0.2-0.6,0-0.5-0.3-0.3c-0.3,0.2-0.7,0.6-0.9,0.7c-0.2,0.9-0.6,1.2-1,1.4c-0.2,0.1-0.4,0.3-0.6,0.5c-0.2,0.2-0.3,0.5-0.5,0.9
						C358.6,223.3,359.2,222.3,359.3,222.4z"/>
					<path fill="#616161" d="M361.1,221.1c0-0.1,0.1-0.2,0.1-0.3C361.1,220.9,361.1,221,361.1,221.1z"/>
					<path fill="#616161" d="M357.3,246.7c0,0.1,0.1,0.3,0.2,0.4C357.6,247.3,357.4,247.1,357.3,246.7z"/>
					<path fill="#616161" d="M362.1,219.1C362.1,219.1,362.1,219.1,362.1,219.1L362.1,219.1C362.1,219.1,362.1,219.1,362.1,219.1z"
						/>
					<polygon fill="#616161" points="362,218 361.7,218.4 361.8,218.4 					"/>
					<path fill="#616161" d="M358.8,251.3l0.2-0.1C358.8,251.2,358.8,251.3,358.8,251.3z"/>
					<path fill="#616161" d="M366.7,261.7l-0.2-0.2C366.5,261.6,366.6,261.6,366.7,261.7z"/>
					<path fill="#616161" d="M396.1,269.3c0.8-0.2,1.9-0.6,2.4-1l0,0.2c0.4-0.2,1.8-0.8,0.8-0.8l-0.2,0.2c-1,0.5-0.8-0.1-1.6,0
						c-0.9,0.3-1.4,1-2.3,1c-0.4,0.1-0.3-0.1-0.3-0.2c-0.9,0.1-1.2,0.6-1.8,0.7c-0.2-0.6-0.8-0.5-1.6-0.3c-0.8,0.2-1.8,0.5-2.4,0
						c-0.8,0.1-1.9-0.1-3,0.1c0.6-0.2-1-0.2-0.7-0.5c-0.4,0.7-2.9-0.7-3.3,0c-1.3-0.6-0.1,0-1.6-0.6c0-0.1,0.3,0,0.4,0
						c-0.6-0.3-1.1,0.2-1.5-0.4c-1.2-0.5-0.3,0.2-1.1,0.1c-1.3-0.6-0.9-0.6-1.4-1.2c-0.3,0.4-0.9-0.2-1.7-0.3c0.1,0.1,1,0.6,0.3,0.5
						c-1.4-0.8-1.3-0.2-2.7-0.9c-0.4-0.8,1.3,0.8,0.3-0.3c0.9,0.3,1.6,0.5,2.2,0.5c-0.6-0.3-1.2-0.5-1.9-0.9c-0.6-0.3-1.3-0.6-2-0.9
						c-0.6-0.4,0.5,0,0-0.3c-1-0.9-2-0.8-2.8-1.6l0.3-0.1c-0.2,0-0.4-0.1-0.6-0.3c-0.2-0.2-0.5-0.4-0.7-0.6c-0.5-0.5-1-1-1.6-1.4
						c0,0.2,0.1,0.3-0.1,0.3c0.4-0.4-1.5-1.1-2-2.3c-0.3,0.4-1.2-0.5-1.7-1.1c-0.1-0.3,0.1-0.3,0.2-0.4c0.6,1.2,1.1,0.7,1.9,1.4
						c-0.7-0.5-1.4-1.7-2.1-2.1l0.4,0c-0.7-0.9-1.2-0.4-1.6-1.6l0.3,0c-0.3-0.5-0.7-1.1-1-1.6c-0.3-0.6-0.5-1.2-0.8-1.8
						c-0.6-1.1-1-2.3-1.6-3.1c-0.2-0.1-0.3,1-0.4,1.1c0.3,0.5,0.6,0.9,0.9,1.3c0.3,0.3,0.6,0.6,0.9,1l-0.3,0.2
						c0.3,0.1,0.9,1,0.8,0.4c0.5,0.6-0.1,0.7,0.6,1.3c-0.4,0.1-0.7-0.3-0.9-0.1c0,0,0.5,0.5,0.5,0.5c-0.2-0.1,0.1,0.4-0.1,0.3
						c0.6,0.5,0.8,0.9,1,1.3c0.2,0.5,0.4,0.9,0.9,1.4l-0.4-0.7c0.2-0.1,0.4,0.3,0.7,0.5c0,0.5,0.2,0.6,0.5,1.3c0.5,0.4,1,0.4,1.6,1
						c-0.4,0.1,0.8,1.2,0.7,1.5c0.2-0.1,0.5,0.2,0.8,0.5c0.3,0.3,0.6,0.5,0.7,0.5c0.4,0.2,0.8,0.7,0.7,0.8c-0.1,0-0.2-0.1-0.3-0.2
						l0.3,0.3c-0.1,0-0.1,0-0.1,0c0.3,0.3,0.5,0.1,0.8,0.6c-0.1,0.1-0.3-0.1-0.5-0.2c0.2,0.2,0.4,0.3,0.6,0.5
						c0.2,0.1,0.5,0.2,0.7,0.3c0.4,0.2,0.8,0.4,1.1,0.8c0.3,0,1.3,0.7,1.3,0.2c0.2,0.3-0.1,0.5,0.7,0.9c0.6,0,0.8,0.6,1.5,0.8
						c-1-0.1,0,0.1-0.9,0c0.2,0.2,0.6,0.3,1,0.5c0.4,0.1,0.9,0.2,1.4,0.5c0.1,0.1,0,0.2,0.1,0.3c0.4,0.1,1,0,1.2,0.4l0.1-0.3
						c0.6,0.5,1.6,0.7,2.3,1.2l1-0.1c1,0.9,2.8,0.8,3.8,0.6c0.4,0.1,1.1,0.3,1.1,0.4c-0.1,0-0.3,0.1-0.5,0.1
						c0.6,0.1,1.4,0.5,1.8,0.2c0.7,0,0.5,0.3,1,0.5c1.4-0.5,4.1,0.6,4.5-0.3c-0.3,0-0.7,0-1.2,0c-0.5-0.1-1-0.1-1.5-0.1
						c0.3-0.1,0.1-0.3,0.5-0.3c0.5,0,0.9,0.1,1.3,0.2c0.4,0,0.8,0.1,1.3,0l-0.1,0.5c0.9,0.2,1.8,0.1,2.6-0.2
						C394.6,269.3,395.3,269,396.1,269.3z"/>
					<path fill="#616161" d="M382.4,269.1c0,0,0.2,0.1,0.4,0.2c0.2,0.1,0.4,0.2,0.4,0.2l0-0.2C382.9,269.3,382.6,269.2,382.4,269.1z
						"/>
					<path fill="#616161" d="M383.1,269.3c0.2,0,0.3,0,0.5,0C383.4,269.2,383.3,269.2,383.1,269.3L383.1,269.3z"/>
					<path fill="#616161" d="M399.1,268.6c0.2,0,0.5-0.1,0.8-0.2C399.7,268.3,399.3,268.4,399.1,268.6z"/>
					<path fill="#616161" d="M399.9,268.2c0,0-0.4,0-0.4,0l0,0.1C399.5,268.3,400,268.2,399.9,268.2z"/>
					<path fill="#616161" d="M417.6,255l0.4-1.2c0.3-0.1,0.8-1.4,0.8-0.8c0-0.4,0.3-0.9,0.5-1.3c0.2-0.4,0.2-0.6-0.1-0.5
						c-0.2,0.4-0.3,0.8-0.6,1.2c-0.3,0.4-0.5,0.8-0.8,1.3c-0.3,0.4-0.5,0.9-0.9,1.3c-0.3,0.4-0.7,0.8-1,1.3
						c-0.6,0.9-1.4,1.7-2.1,2.5c-0.7,0.9-1.5,1.6-2.2,2.3l0.4-0.6c-0.7,0.9-1.3,1.3-1.9,1.6c-0.6,0.3-1.1,0.7-1.6,1.6l-0.1-0.5
						c-0.9,0.4-1.3,1.5-2.4,1.6l0.2,0.1c-0.2,0.1-0.4,0.1-0.6,0.3l0.1,0c-0.6,0.5-1,0.6-1.7,0.8c-0.1-0.1,0.3-0.2,0.5-0.3
						c-0.4,0-0.7,0.5-1.2,0.7c-0.4,0.1-0.1-0.2,0-0.3c-0.7,0.5-1.3,0.5-1.8,0.7c-0.5,0.2-0.9,0.4-1.4,0.9c-0.1,0.2,0.5,0.1-0.1,0.3
						c1.1-0.2,1.9-0.7,2.8-1.2l-0.3,0.1c0.5-0.9,0.6-0.1,1.7-0.9c-0.2,0.4-0.7,0.6-0.9,0.8c1.6-0.2,1.8-1.2,2.9-1.1l-0.1,0.1
						c0.2-0.1,0.5-0.4,0.8-0.6c-0.1,0-0.4,0.1-0.7,0.2c0.3-0.2,0.3-0.6,0.3-0.7c0.5,0.1,0.4-0.4,1-0.5c0.3,0.1-0.3,0.5-0.4,0.7
						l0.5-0.5c0.6-0.3,0.7-0.1,1.1-0.1c0.4-0.5-0.4,0.1-0.1-0.4c0.4-0.1,1.2-0.6,2-1.2c0.9-0.6,1.6-1.5,2.1-2
						c-0.4,0.4,0.1,0.3-0.4,0.7c0.2-0.1,0.7-0.7,0.6-0.9c0.7-0.8,1.6-1.6,2.4-2.2l-0.3,0.1c0.1-0.4,0.6-0.7,1-1.1
						c0.4-0.4,0.9-0.8,1.2-1.4l0,0c0.2-0.4,0.1-1,0.6-1.6C417.7,254.5,417.4,254.9,417.6,255z"/>
					<path fill="#616161" d="M419.7,250.5l0.1,0.5c0.3-0.4,0.2-1.1,0-1.1c-0.1,0.3-0.4,0.6-0.3,0.8
						C419.5,250.7,419.6,250.8,419.7,250.5z"/>
					<path fill="#616161" d="M422.3,241.9c0-0.2-0.2-0.2-0.2-0.2c-0.2,1.9-0.8,4.2-1.2,4.9c-0.3,0.6,0.1,0.8-0.1,1.6l-0.4,0.2
						c0,0.2-0.2,0.6-0.3,1c-0.1,0.3-0.2,0.5,0.1,0.4c0.1,0,0-0.4,0.2-0.8l0.1,0.1l0.3-0.8l0.1,0.3c0.7-1-0.3-1,0.4-2.3l0.4,0.1
						c0.3-1,0.3-1.5,0.7-2.2c0,0-0.2-0.1-0.2,0.1c-0.1,0.2-0.3,0.3-0.4,0.2c0.1-1.5,0.2,0.3,0.6-0.7c-0.1-1.3,0.1-3.7,0.4-4.4
						c-0.3,0.6-0.5-0.3-0.4-1c0.2-0.3,0.2,0.2,0.4,0.4c0.1-0.3,0.2-0.6,0.1-0.9c-0.3,0.4-0.6,0.1-0.7-0.6
						C421.9,238.8,422.7,240.2,422.3,241.9z"/>
					<path fill="#616161" d="M422.1,241.3c0,0.2,0,0.3,0,0.3c0-0.2,0.1-0.4,0.1-0.7L422.1,241.3z"/>
				</g>
			</g>
		</g>
	</g>
</g>
</svg>

